<svg width="85" height="456" viewBox="0 0 85 456" fill="none" xmlns="http://www.w3.org/2000/svg">
<path d="M287.518 3.75036C344.029 3.75036 389.835 49.5573 389.835 106.068V441.823C389.835 447.793 384.952 451.746 379.859 451.746C377.429 451.746 374.947 450.846 372.929 448.828L270.401 346.293H63.6665C30.8584 346.293 4.25329 319.696 4.25329 286.88V13.6513C4.25329 8.18329 8.68622 3.75036 14.1542 3.75036H287.518ZM287.518 0H14.1542C6.62352 0 0.50293 6.12809 0.50293 13.6513V286.88C0.50293 321.706 28.8332 350.044 63.6665 350.044H268.856L370.281 451.476C372.869 454.064 376.274 455.496 379.859 455.496C387.428 455.496 393.586 449.361 393.586 441.823V106.068C393.586 77.7375 382.552 51.1024 362.518 31.068C342.483 11.0336 315.848 0 287.518 0Z" fill="#212121"/>
</svg>
