<svg width="122" height="456" viewBox="0 0 122 456" fill="none" xmlns="http://www.w3.org/2000/svg">
<path d="M287.015 4.25402C343.526 4.25402 389.332 50.0609 389.332 106.571V442.326C389.332 448.297 384.45 452.25 379.357 452.25C376.926 452.25 374.444 451.35 372.426 449.332L269.898 346.797H63.1636C30.3554 346.797 3.75036 320.199 3.75036 287.384V14.155C3.75036 8.68695 8.18329 4.25402 13.6513 4.25402H287.015ZM287.015 0.503662H13.6513C6.12809 0.503662 0 6.63175 0 14.155V287.384C0 322.21 28.3302 350.547 63.1636 350.547H268.353L369.778 451.98C372.366 454.567 375.771 456 379.357 456C386.925 456 393.083 449.864 393.083 442.326V106.571C393.083 78.2411 382.049 51.6061 362.015 31.5717C341.98 11.5372 315.345 0.503662 287.015 0.503662Z" fill="#00E467"/>
</svg>
