<svg width="279" height="55" viewBox="0 0 279 55" fill="none" xmlns="http://www.w3.org/2000/svg">
<rect x="1" y="1" width="277" height="53" rx="26.5" stroke="#212121" stroke-width="2"/>
<path d="M76.9268 19.6H73.8028L69.4028 26.882L64.9808 19.6H61.8568V35H64.8928V25.034L69.2268 32.162H69.5788L73.9128 25.012V35H76.9268V19.6ZM84.9002 35.308C88.1342 35.308 90.7302 32.778 90.7302 29.5C90.7302 26.222 88.1342 23.692 84.9002 23.692C81.6662 23.692 79.0922 26.222 79.0922 29.5C79.0922 32.778 81.6662 35.308 84.9002 35.308ZM84.9002 32.536C83.2282 32.536 81.9302 31.282 81.9302 29.5C81.9302 27.718 83.2282 26.464 84.9002 26.464C86.5942 26.464 87.8922 27.718 87.8922 29.5C87.8922 31.282 86.5942 32.536 84.9002 32.536ZM95.5647 25.892V24H92.7267V35H95.5647V29.742C95.5647 27.432 97.4347 26.772 98.9087 26.948V23.78C97.5227 23.78 96.1367 24.396 95.5647 25.892ZM102.558 30.666H110.852C110.918 30.292 110.962 29.918 110.962 29.5C110.962 26.266 108.652 23.692 105.396 23.692C101.942 23.692 99.5883 26.222 99.5883 29.5C99.5883 32.778 101.92 35.308 105.616 35.308C107.728 35.308 109.378 34.45 110.412 32.954L108.124 31.634C107.64 32.272 106.76 32.734 105.66 32.734C104.164 32.734 102.954 32.118 102.558 30.666ZM102.514 28.466C102.844 27.058 103.878 26.244 105.396 26.244C106.584 26.244 107.772 26.882 108.124 28.466H102.514ZM123.68 35.308C126.914 35.308 129.51 32.778 129.51 29.5C129.51 26.222 126.914 23.692 123.68 23.692C120.446 23.692 117.872 26.222 117.872 29.5C117.872 32.778 120.446 35.308 123.68 35.308ZM123.68 32.536C122.008 32.536 120.71 31.282 120.71 29.5C120.71 27.718 122.008 26.464 123.68 26.464C125.374 26.464 126.672 27.718 126.672 29.5C126.672 31.282 125.374 32.536 123.68 32.536ZM137.622 23.692C136.148 23.692 135.004 24.242 134.344 25.232V24H131.506V35H134.344V29.06C134.344 27.146 135.378 26.332 136.764 26.332C138.04 26.332 138.942 27.102 138.942 28.598V35H141.78V28.246C141.78 25.32 139.954 23.692 137.622 23.692ZM164.949 26.728H157.227V29.412H161.891C161.363 31.172 159.823 32.338 157.403 32.338C154.191 32.338 152.145 30.182 152.145 27.322C152.145 24.396 154.257 22.24 157.183 22.24C159.053 22.24 160.615 23.142 161.319 24.374L163.915 22.878C162.617 20.766 160.131 19.292 157.205 19.292C152.607 19.292 149.131 22.856 149.131 27.322C149.131 31.722 152.563 35.308 157.381 35.308C161.803 35.308 164.949 32.36 164.949 27.916V26.728ZM168.385 22.68C169.353 22.68 170.145 21.888 170.145 20.942C170.145 19.996 169.353 19.182 168.385 19.182C167.439 19.182 166.647 19.996 166.647 20.942C166.647 21.888 167.439 22.68 168.385 22.68ZM166.977 35H169.815V24H166.977V35ZM178.704 26.728V24H176.218V20.92L173.38 21.778V24H171.466V26.728H173.38V31.304C173.38 34.274 174.722 35.44 178.704 35V32.426C177.076 32.514 176.218 32.492 176.218 31.304V26.728H178.704ZM186.821 23.692C185.347 23.692 184.203 24.242 183.543 25.232V19.6H180.705V35H183.543V29.06C183.543 27.146 184.577 26.332 185.963 26.332C187.239 26.332 188.141 27.102 188.141 28.598V35H190.979V28.246C190.979 25.32 189.153 23.692 186.821 23.692ZM200.662 24V29.94C200.662 31.854 199.628 32.668 198.242 32.668C196.966 32.668 196.064 31.898 196.064 30.402V24H193.226V30.754C193.226 33.68 195.052 35.308 197.384 35.308C198.858 35.308 200.002 34.758 200.662 33.768V35H203.5V24H200.662ZM212.502 23.692C210.896 23.692 209.73 24.286 208.938 25.298V19.6H206.1V35H208.938V33.702C209.73 34.714 210.896 35.308 212.502 35.308C215.45 35.308 217.87 32.778 217.87 29.5C217.87 26.222 215.45 23.692 212.502 23.692ZM211.974 32.602C210.236 32.602 208.938 31.348 208.938 29.5C208.938 27.652 210.236 26.398 211.974 26.398C213.734 26.398 215.032 27.652 215.032 29.5C215.032 31.348 213.734 32.602 211.974 32.602Z" fill="#212121"/>
</svg>
