<svg width="566" height="656" viewBox="0 0 566 656" fill="none" xmlns="http://www.w3.org/2000/svg">
<path d="M152.727 5.40122C71.3575 5.40122 5.40015 71.3717 5.40015 152.757V636.307C5.40015 644.906 12.4311 650.599 19.7645 650.599C23.2638 650.599 26.8387 649.302 29.744 646.397L177.373 498.727H475.051C522.291 498.727 560.6 460.422 560.6 413.161V19.6604C560.6 11.7855 554.217 5.40122 546.343 5.40122H152.727ZM152.727 0H546.343C557.176 0 566 8.82559 566 19.6604V413.161C566 463.317 525.207 504.128 475.051 504.128H179.598L33.5565 650.21C29.8304 653.937 24.9271 656 19.7645 656C8.867 656 0 647.164 0 636.307V152.757C0 111.957 15.8872 73.597 44.7348 44.7437C73.5824 15.8904 111.934 0 152.727 0Z" fill="#00E467"/>
</svg>
