<svg width="151" height="50" viewBox="0 0 151 50" fill="none" xmlns="http://www.w3.org/2000/svg">
<path d="M78.4471 10.5481V44.0302H72.5304V30.7733C70.8839 32.8872 68.4513 34.1194 65.1052 34.1194C58.9548 34.1194 53.9092 28.84 53.9092 22.0098C53.9092 15.1795 58.9548 9.90015 65.1052 9.90015C68.4513 9.90015 70.8839 11.143 72.5304 13.2463V10.5375H78.4471V10.5481ZM72.5304 22.0098C72.5304 18.1538 69.8216 15.5407 66.1994 15.5407C62.5771 15.5407 59.8259 18.1538 59.8259 22.0098C59.8259 25.8658 62.5346 28.4788 66.1994 28.4788C69.8641 28.4788 72.5304 25.8658 72.5304 22.0098Z" fill="#F2F2F2"/>
<path d="M106.065 10.5482V33.4822H100.149V30.9116C98.7677 32.9723 96.3882 34.1195 93.3183 34.1195C88.4532 34.1195 84.6504 30.7203 84.6504 24.623V10.5376H90.5671V23.8794C90.5671 27.0024 92.4473 28.6064 95.1029 28.6064C97.9922 28.6064 100.149 26.9069 100.149 22.9234V10.5376H106.065V10.5482Z" fill="#F2F2F2"/>
<path d="M111.568 4.17453C111.568 2.19875 113.214 0.509766 115.19 0.509766C117.166 0.509766 118.855 2.20937 118.855 4.17453C118.855 6.13969 117.208 7.79683 115.19 7.79683C113.172 7.79683 111.568 6.15031 111.568 4.17453ZM112.258 10.548H118.175V33.482H112.258V10.548Z" fill="#F2F2F2"/>
<path d="M124.368 0H130.285V33.4821H124.368V0Z" fill="#F2F2F2"/>
<path d="M144.838 16.2418V25.7808C144.838 28.2558 146.622 28.2983 150.021 28.1178V33.4821C141.715 34.3956 138.921 31.9737 138.921 25.7808V16.2418H134.927V10.5588H138.921V5.92739L144.838 4.14282V10.5588H150.021V16.2418H144.838Z" fill="#F2F2F2"/>
<path d="M146.93 37.8372H87.7313C86.0241 37.8372 84.6401 39.2211 84.6401 40.9283V40.9389C84.6401 42.6461 86.0241 44.0301 87.7313 44.0301H146.93C148.638 44.0301 150.021 42.6461 150.021 40.9389V40.9283C150.021 39.2211 148.638 37.8372 146.93 37.8372Z" fill="#00E467"/>
<path d="M25.3983 49.4686C25.0903 49.4686 24.8035 49.3517 24.5804 49.1287L18.0795 42.6277H4.88633C2.47503 42.6277 0.520508 40.6732 0.520508 38.2619V20.5436C0.520508 19.9063 1.04101 19.3857 1.67835 19.3857H19.4073C23.3482 19.3857 26.5562 22.5937 26.5562 26.5346V48.3107C26.5562 48.64 26.4287 48.9375 26.195 49.1499C25.9826 49.3518 25.6851 49.4686 25.3983 49.4686Z" fill="#212121"/>
<path d="M19.4073 19.8957C23.072 19.8957 26.0463 22.87 26.0463 26.5347V48.3108C26.0463 48.6932 25.7276 48.9588 25.3983 48.9588C25.239 48.9588 25.0797 48.8951 24.9522 48.7676L18.3025 42.118H4.89695C2.77245 42.118 1.04098 40.3971 1.04098 38.262V20.5437C1.04098 20.1932 1.3278 19.9063 1.67834 19.9063H19.4073V19.8957ZM19.4073 18.876H1.67834C0.754181 18.876 0 19.6302 0 20.5543V38.2726C0 40.9707 2.1882 43.1589 4.88631 43.1589H17.867L24.2192 49.5112C24.5379 49.8298 24.9522 49.9998 25.3983 49.9998C26.3225 49.9998 27.0767 49.2456 27.0767 48.3214V26.5454C27.0767 22.3176 23.635 18.876 19.4073 18.876Z" fill="#00E467"/>
<path d="M32.6215 42.235C32.3135 42.235 32.0266 42.1181 31.8036 41.895L25.3026 35.3941H12.1095C9.6982 35.3941 7.74365 33.4396 7.74365 31.0283V13.31C7.74365 12.6726 8.26415 12.1521 8.9015 12.1521H26.6304C30.5714 12.1521 33.7793 15.3601 33.7793 19.301V41.0771C33.7793 41.4064 33.6519 41.7038 33.4182 41.9163C33.2057 42.1181 32.9083 42.235 32.6215 42.235Z" fill="#212121"/>
<path d="M26.6411 12.6725C30.3059 12.6725 33.2802 15.6468 33.2802 19.3116V41.0877C33.2802 41.4701 32.9615 41.7356 32.6322 41.7356C32.4729 41.7356 32.3135 41.6719 32.1861 41.5444L25.5364 34.8948H12.1308C10.0063 34.8948 8.27487 33.174 8.27487 31.0388V13.3205C8.27487 12.97 8.56168 12.6832 8.91222 12.6832H26.6411V12.6725ZM26.6411 11.6528H8.91222C7.98807 11.6528 7.23389 12.407 7.23389 13.3311V31.0494C7.23389 33.7475 9.42209 35.9358 12.1202 35.9358H25.1009L31.4531 42.288C31.7718 42.6067 32.1861 42.7767 32.6322 42.7767C33.5564 42.7767 34.3106 42.0225 34.3106 41.0983V19.3222C34.3106 15.0945 30.8689 11.6528 26.6411 11.6528Z" fill="#00E467"/>
<path d="M39.8446 35.0223C39.5366 35.0223 39.2498 34.9055 39.0267 34.6824L32.5257 28.1814H19.3326C16.9213 28.1814 14.9668 26.2268 14.9668 23.8155V6.09727C14.9668 5.45992 15.4873 4.93945 16.1246 4.93945H33.8536C37.7945 4.93945 41.0025 8.14742 41.0025 12.0884V33.8644C41.0025 34.1937 40.875 34.4911 40.6413 34.7036C40.4289 34.9054 40.1314 35.0223 39.8446 35.0223Z" fill="#212121"/>
<path d="M33.8643 5.44922C37.529 5.44922 40.5033 8.42352 40.5033 12.0883V33.8643C40.5033 34.2468 40.1847 34.5123 39.8554 34.5123C39.696 34.5123 39.5367 34.4486 39.4092 34.3211L32.7596 27.6714H19.354C17.2295 27.6714 15.498 25.9506 15.498 23.8155V6.09718C15.498 5.74664 15.7848 5.45986 16.1354 5.45986H33.8643V5.44922ZM33.8643 4.42944H16.1354C15.2112 4.42944 14.457 5.18366 14.457 6.10781V23.8261C14.457 26.5242 16.6453 28.7125 19.3434 28.7125H32.324L38.6763 35.0647C38.9949 35.3834 39.4092 35.5533 39.8554 35.5533C40.7795 35.5533 41.5337 34.7991 41.5337 33.875V12.0989C41.5337 7.87116 38.092 4.42944 33.8643 4.42944Z" fill="#00E467"/>
</svg>
